<?xml version="1.0" encoding="utf-8"?>
<!-- Generator: Adobe Illustrator 14.0.0, SVG Export Plug-In . SVG Version: 6.00 Build 43363)  -->
<!DOCTYPE svg PUBLIC "-//W3C//DTD SVG 1.1//EN" "http://www.w3.org/Graphics/SVG/1.1/DTD/svg11.dtd">
<svg version="1.1" id="Layer_1" xmlns="http://www.w3.org/2000/svg" xmlns:xlink="http://www.w3.org/1999/xlink" x="0px" y="0px"
	 width="231.518px" height="28.262px" viewBox="0 0 231.518 28.262" enable-background="new 0 0 231.518 28.262"
	 xml:space="preserve">
<g enable-background="new    ">
	<path fill="#010101" d="M22.004,12.818c0,6.006-3.666,9.23-8.138,9.23c-4.654,0-7.878-3.614-7.878-8.919
		c0-5.563,3.432-9.204,8.112-9.204C18.909,3.925,22.004,7.591,22.004,12.818z M8.379,13.077c0,3.771,2.028,7.124,5.616,7.124
		s5.616-3.302,5.616-7.279c0-3.511-1.82-7.15-5.59-7.15S8.379,9.255,8.379,13.077z"/>
	<path fill="#010101" d="M24.941,4.471c1.144-0.208,2.808-0.363,4.342-0.363c2.418,0,4.004,0.468,5.07,1.43
		c0.858,0.78,1.378,1.977,1.378,3.354c0,2.288-1.456,3.821-3.276,4.446v0.077c1.326,0.469,2.132,1.717,2.548,3.536
		c0.572,2.444,0.988,4.135,1.352,4.811h-2.34c-0.286-0.52-0.676-2.002-1.144-4.187c-0.52-2.418-1.482-3.328-3.536-3.405h-2.132
		v7.592h-2.262V4.471z M27.203,12.453h2.314c2.418,0,3.952-1.326,3.952-3.328c0-2.262-1.638-3.25-4.03-3.25
		c-1.092,0-1.846,0.078-2.236,0.182V12.453z"/>
	<path fill="#010101" d="M38.643,19.006c1.014,0.649,2.47,1.144,4.03,1.144c2.314,0,3.666-1.222,3.666-2.99
		c0-1.611-0.936-2.573-3.302-3.458c-2.86-1.04-4.628-2.548-4.628-4.992c0-2.729,2.262-4.758,5.668-4.758
		c1.768,0,3.094,0.416,3.848,0.857l-0.624,1.847c-0.546-0.338-1.716-0.832-3.302-0.832c-2.392,0-3.302,1.43-3.302,2.626
		c0,1.638,1.066,2.444,3.484,3.38c2.964,1.145,4.446,2.574,4.446,5.148c0,2.704-1.976,5.07-6.11,5.07
		c-1.69,0-3.536-0.521-4.472-1.145L38.643,19.006z"/>
	<path fill="#010101" d="M66.723,12.818c0,6.006-3.666,9.23-8.138,9.23c-4.654,0-7.878-3.614-7.878-8.919
		c0-5.563,3.432-9.204,8.112-9.204C63.629,3.925,66.723,7.591,66.723,12.818z M53.099,13.077c0,3.771,2.028,7.124,5.616,7.124
		s5.616-3.302,5.616-7.279c0-3.511-1.82-7.15-5.59-7.15S53.099,9.255,53.099,13.077z"/>
	<path fill="#010101" d="M69.66,21.762V4.238h2.496l5.59,8.866c1.274,2.054,2.314,3.9,3.12,5.694l0.078-0.026
		c-0.208-2.34-0.26-4.472-0.26-7.202V4.238h2.132v17.524h-2.288l-5.564-8.893c-1.222-1.95-2.392-3.952-3.25-5.85l-0.078,0.025
		c0.13,2.21,0.156,4.316,0.156,7.229v7.488H69.66z"/>
	<path fill="#010101" d="M91.994,19.006c1.014,0.649,2.47,1.144,4.03,1.144c2.314,0,3.666-1.222,3.666-2.99
		c0-1.611-0.936-2.573-3.302-3.458c-2.86-1.04-4.628-2.548-4.628-4.992c0-2.729,2.262-4.758,5.668-4.758
		c1.769,0,3.094,0.416,3.849,0.857l-0.624,1.847c-0.546-0.338-1.716-0.832-3.302-0.832c-2.392,0-3.302,1.43-3.302,2.626
		c0,1.638,1.066,2.444,3.484,3.38c2.964,1.145,4.446,2.574,4.446,5.148c0,2.704-1.976,5.07-6.11,5.07
		c-1.69,0-3.536-0.521-4.473-1.145L91.994,19.006z"/>
	<path fill="#010101" d="M117.319,21.216c-0.807,0.416-2.497,0.832-4.629,0.832c-4.94,0-8.632-3.12-8.632-8.893
		c0-5.512,3.718-9.204,9.152-9.204c2.158,0,3.562,0.468,4.16,0.78l-0.572,1.846c-0.832-0.416-2.053-0.728-3.509-0.728
		c-4.108,0-6.838,2.626-6.838,7.228c0,4.316,2.47,7.047,6.708,7.047c1.404,0,2.808-0.286,3.717-0.729L117.319,21.216z"/>
	<path fill="#010101" d="M134.608,12.818c0,6.006-3.666,9.23-8.139,9.23c-4.654,0-7.878-3.614-7.878-8.919
		c0-5.563,3.433-9.204,8.112-9.204C131.514,3.925,134.608,7.591,134.608,12.818z M120.983,13.077c0,3.771,2.029,7.124,5.617,7.124
		s5.615-3.302,5.615-7.279c0-3.511-1.82-7.15-5.59-7.15S120.983,9.255,120.983,13.077z"/>
	<path fill="#010101" d="M140.223,6.161h-5.33V4.238h12.975v1.924h-5.355v15.601h-2.289V6.161z"/>
	<path fill="#010101" d="M154.134,6.161h-5.33V4.238h12.975v1.924h-5.356v15.601h-2.288V6.161z"/>
	<path fill="#010101" d="M181.46,21.216c-0.807,0.416-2.496,0.832-4.629,0.832c-4.939,0-8.632-3.12-8.632-8.893
		c0-5.512,3.718-9.204,9.152-9.204c2.158,0,3.562,0.468,4.16,0.78l-0.571,1.846c-0.832-0.416-2.055-0.728-3.511-0.728
		c-4.108,0-6.839,2.626-6.839,7.228c0,4.316,2.471,7.047,6.709,7.047c1.404,0,2.809-0.286,3.718-0.729L181.46,21.216z"/>
	<path fill="#010101" d="M187.257,16.25l-1.82,5.512h-2.34l5.98-17.524h2.704l5.979,17.524h-2.418l-1.871-5.512H187.257z
		 M193.029,14.482l-1.742-5.044c-0.39-1.145-0.649-2.185-0.91-3.198h-0.052c-0.26,1.014-0.52,2.106-0.885,3.172l-1.715,5.07H193.029
		z"/>
	<path fill="#010101" d="M200.335,4.471c1.145-0.208,2.809-0.363,4.342-0.363c2.418,0,4.004,0.468,5.07,1.43
		c0.858,0.78,1.379,1.977,1.379,3.354c0,2.288-1.457,3.821-3.277,4.446v0.077c1.326,0.469,2.133,1.717,2.549,3.536
		c0.572,2.444,0.988,4.135,1.352,4.811h-2.34c-0.285-0.52-0.676-2.002-1.145-4.187c-0.52-2.418-1.481-3.328-3.535-3.405h-2.133
		v7.592h-2.262V4.471z M202.596,12.453h2.314c2.418,0,3.952-1.326,3.952-3.328c0-2.262-1.638-3.25-4.03-3.25
		c-1.092,0-1.846,0.078-2.236,0.182V12.453z"/>
	<path fill="#010101" d="M214.323,4.497c1.377-0.234,3.016-0.39,4.81-0.39c3.251,0,5.564,0.779,7.099,2.184
		c1.586,1.43,2.496,3.458,2.496,6.292c0,2.86-0.91,5.2-2.522,6.812c-1.664,1.638-4.368,2.522-7.774,2.522
		c-1.638,0-2.964-0.078-4.107-0.208V4.497z M216.585,19.994c0.572,0.077,1.404,0.104,2.288,0.104c4.862,0,7.462-2.704,7.462-7.437
		c0.026-4.134-2.314-6.76-7.098-6.76c-1.17,0-2.055,0.104-2.652,0.233V19.994z"/>
</g>
</svg>
