<?xml version="1.0" encoding="utf-8"?>
<!-- Generator: Adobe Illustrator 14.0.0, SVG Export Plug-In . SVG Version: 6.00 Build 43363)  -->
<!DOCTYPE svg PUBLIC "-//W3C//DTD SVG 1.1//EN" "http://www.w3.org/Graphics/SVG/1.1/DTD/svg11.dtd">
<svg version="1.1" id="Layer_1" xmlns="http://www.w3.org/2000/svg" xmlns:xlink="http://www.w3.org/1999/xlink" x="0px" y="0px"
	 width="204px" height="246px" viewBox="0 0 204 246" enable-background="new 0 0 204 246" xml:space="preserve">
<g>
	<g id="XMLID_1_">
		<g>
			<path fill="none" stroke="#141006" stroke-width="2" d="M5.229,20.173l26.452,30.463l-3.206,6.404l37.739,61.942l-4.798,5.093
				l51.585,75.893l31.95-27.991l14.175,27.491l3.066-3.257l3.165,9.124c3.559-3.774,6.962-7.387,10.048-10.662
				c2.633-2.796,5.024-5.333,7.075-7.509L34.917,53.684L5.229,20.173z"/>
			<path fill="none" stroke="#141006" stroke-width="2" d="M182.875,186.741c4.932-5.231,7.055-7.488,7.055-7.488
				c3.105-3.297,6.513-6.909,10.068-10.686l-9.3-2.616l3.068-3.256l-28.287-12.512l26.021-33.542l-78.83-46.973l-4.78,5.073
				L43.811,40.761l-6.2,3.582L5.624,19.753l35.222,27.639L182.875,186.741z"/>
		</g>
	</g>
</g>
</svg>
