<?xml version="1.0" encoding="utf-8"?>
<!-- Generator: Adobe Illustrator 14.0.0, SVG Export Plug-In . SVG Version: 6.00 Build 43363)  -->
<!DOCTYPE svg PUBLIC "-//W3C//DTD SVG 1.1//EN" "http://www.w3.org/Graphics/SVG/1.1/DTD/svg11.dtd">
<svg version="1.1" id="Layer_1" xmlns="http://www.w3.org/2000/svg" xmlns:xlink="http://www.w3.org/1999/xlink" x="0px" y="0px"
	 width="375.241px" height="348.689px" viewBox="0 0 375.241 348.689" enable-background="new 0 0 375.241 348.689"
	 xml:space="preserve">
<g>
	<g>
		<path fill="#010101" d="M356.601,12.093c-1.482-1.166-2.606-1.166-4.089,0C351.827,9.308,357.287,9.308,356.601,12.093z"/>
		<path fill="#010101" d="M290.198,112.207c1.085,0.41,1.993,2.102,1.021,3.062C289.583,115.416,289.36,113.033,290.198,112.207z"/>
		<path fill="#010101" d="M295.818,128.042c-1.029-0.671-1.728-1.677-2.043-3.065C295.406,125.046,296.019,126.135,295.818,128.042z
			"/>
		<path fill="#010101" d="M285.602,133.658c1.757-0.221,2.862,0.205,4.086,0.512c0.341,2.216-2.371,1.375-4.086,1.534
			C285.602,135.023,285.602,134.343,285.602,133.658z"/>
		<path fill="#010101" d="M290.198,135.193c1.393-0.375,1.026,1.016,2.045,1.02c0.442,1.977-1.249,1.818-1.534,3.064
			C289.539,138.854,289.31,136.141,290.198,135.193z"/>
		<path fill="#010101" d="M288.664,136.726c0.729,3.291-2.054,7.478-3.062,10.727C285.047,144.334,288.103,140.423,288.664,136.726z
			"/>
		<path fill="#010101" d="M120.107,150.515c2.97,1.964,5.42,4.455,6.127,8.684c-2.111-3.676-4.745-6.829-8.172-9.194
			c0.197,0.594,2.481,0.594,1.021,0c3.02-0.964,6.056,2.447,7.149,5.108C123.761,154.012,123.306,150.893,120.107,150.515z"/>
		<path fill="#010101" d="M242.182,229.178c2.444-0.742,1.272,2.135,1.534,3.575C241.975,232.793,242.205,230.859,242.182,229.178z"
			/>
		<path fill="#010101" d="M306.544,248.079c-2.68,0.711-3.721,0.247-7.152,0.507c0.83,1.9,0.425,5.025,0.512,7.666
			c-2.305-0.08-1.534-3.236-2.043-5.109c-2.341-2.428-6.981-2.555-6.129-8.172c4.898,1.035,10.36-0.241,17.367,0
			c0.54,3.224,2.741,9.594,1.018,11.749C307.108,254.324,308.876,249.147,306.544,248.079z"/>
		<path fill="#010101" d="M311.651,245.014c0.68,0,1.363,0,2.043,0c1.173,1.723-0.085,5.875,1.021,7.661
			c5.25,0.313,9.474-0.401,14.304-0.509c0.906,0.968,0.372,3.375,0.509,5.105c-5.971-0.351-10.375,0.863-16.344,0.512
			c0.355-2.23-1.476-2.271-1.534-4.088C313.977,250.678,310.874,250.232,311.651,245.014z"/>
		<path fill="#010101" d="M315.228,245.523c2.213,0,4.427,0,6.641,0c0,0.511,0,1.02,0,1.533c-0.886,1.838-4.178,1.271-6.641,1.531
			C315.228,247.568,315.228,246.543,315.228,245.523z"/>
		<path fill="#010101" d="M315.228,249.1c2.213,0,4.427,0,6.641,0c-0.21,1.229,0.931,1.107,0.509,2.555
			c-2.669-0.117-5.101,0.008-7.149,0.512C315.641,250.398,314.272,250.006,315.228,249.1z"/>
		<path fill="#010101" d="M307.565,250.12c0,0.68,0,1.364,0,2.046C305.596,252.566,305.596,249.719,307.565,250.12z"/>
		<path fill="#010101" d="M290.198,250.629c0.877,0.66,2.008,1.059,2.045,2.555c-0.682,0-1.365,0-2.045,0
			C290.198,252.336,290.198,251.484,290.198,250.629z"/>
		<path fill="#010101" d="M303.988,253.186c1.347-0.156,1.317,1.066,1.534,2.043C303.815,255.742,303.846,254.52,303.988,253.186z"
			/>
		<path fill="#010101" d="M243.716,257.271c0.825-0.143,0.879,0.484,1.534,0.512c-1.705,2.704,0.133,2.658,1.019,5.107
			c-2.393,0.162-0.832,4.277-2.043,5.619c-0.571-4.023-0.513-8.68-3.575-10.217C241.704,257.982,244.2,259.117,243.716,257.271z"/>
		<path fill="#010101" d="M110.401,5.963c2.548-1.025,5.285-1.866,8.684-2.043c3.392,13.293,7.58,25.793,10.727,39.329
			c0.435-0.093,0.482,0.201,0.509,0.511l-1.278,1.277l1.79-0.256c0.684,5.273,2.523,9.396,3.575,14.305l-0.253,0.764l0.765-0.255
			c-0.403,1.767,0.57,2.157,1.021,3.064h-0.511v0.511c2.195,7.34,4.24,14.83,6.133,22.475l-0.257,0.766l0.765-0.254
			c-5.113,5.441-13.522,7.587-19.41,12.258c6.206-2.478,12.294-5.073,18.392-7.662c-5.516,7.086-11.381,13.817-10.217,27.582
			c14.603-5.152,29.983-13.941,44.95-20.432c0.486,0.95-1.532,1.708,0,2.043c15.414-7.912,31.785-14.867,46.991-22.986
			c-1.97,0.072-2.359,1.729-4.595,1.535l-0.509-2.299l-1.534-1.79c16.32-9.22,34.165-16.914,50.059-26.559l0.511,0.894l0.509-0.894
			c2.174-0.038,3.573-0.854,6.129-0.511l-0.253,2.006l1.276,1.569c-5.028,3.485-13.061,6.687-16.345,10.216
			c8.682-4.938,18.105-9.137,27.071-13.791l0.255,0.766l0.766,0.256c1.305,4.781-1.354,9.832-2.043,14.302
			c-0.935,0.132-3.593,1.108-2.552,1.532c3.275-1.148,6.352-2.498,10.727-2.554l-0.256,0.937l0.766,0.596
			c-0.112,2.785,0.351,6.141-0.51,8.173l-0.511,1.02l1.021,0.511c-0.152,3.143-4.494,3.454-4.598,5.621
			c-0.138,2.916,8.417,4.978,3.063,8.682l-2.033-0.344l-1.542,1.367c-6.927-10.471-16.425,1.125-24.521,4.086l-0.253-1.277
			l-1.278,0.256c1.632-6.641-0.426-13.361-4.597-15.834c3.302-1.127,5.983-2.872,9.195-4.087
			c-18.363,6.851-40.851,19.11-59.763,29.114c3.596,4.818,4.167,13.379,3.575,20.943l-1.276,0.766l1.276,0.766
			c-9.45,6.211-19.715,11.61-29.625,17.367c1.69,3.076,5.514,4.02,5.62,8.682l-2.172-0.127l-1.405,1.656
			c-0.667-0.178-0.802-0.896-1.532-1.019c-6.62,4.616-14.453,8.021-21.453,12.259c-2.754-4.225-5.539-8.424-8.172-12.77l0.256-0.767
			l-0.767,0.258c1.625-5.841,2.342-14.432-0.511-19.413c-10.685,1.576-16.503,8.018-25.028,11.751
			c-3.116,0.122-5.292,1.177-7.15,2.554c0.229,3.295-0.141,5.985-1.021,8.173c-4.664,1.464-9.571,2.69-13.281,5.108
			c8.831,2.576,12.859,9.956,15.324,18.898l-0.256,0.765l0.767-0.255c-4.03,9.596-9.253,17.99-13.281,27.584
			c17.157,10.938,33.344,22.842,50.568,33.714c7.544-5.736,15.043-11.519,22.989-16.858l0.251,0.766l0.767-0.256
			c4.622-0.142,10.115,0.582,13.281-1.019c0.705,11.022,1.902,29.073,0.509,43.413c0.197,1.904-2.459,0.943-2.552,2.555
			c0.407,3.336,0.809,6.684,2.552,8.684c12.687-3.621,34.713-2.369,45.459-2.043c-0.36,4.236-1.137,8.057-1.532,12.258
			c0.22,1.145,2.517,0.209,3.575,0.512l0.256,2.299l0.255,2.299c-3.417,0.092-3.984,1.031-4.597,3.064
			c-8.91-1.377-20.822-2.383-28.604,0c-14.127,4.32-14.569,25.764-23.496,35.244c-2.035-1.125-3.656,0.146-6.127,0
			c-4.28,7.816-16.243,7.938-24.01,12.26c-11.278-9.662-21.239-20.643-31.667-31.16c-0.07-9.943-0.07-19.818,0.507-29.113
			c0.852,0,1.704,0,2.554,0c0-1.023,0-2.047,0-3.064c-2.438-1.57-5.657,0.457-8.684,0c-1.515,0.869-1.451,3.316-2.55,4.598
			c-8.619-3.475-22.305-1.875-26.051-10.217l1.276-0.766l-1.276-0.768c0-1.189,0-2.383,0-3.576
			c-10.105-3.52,0.461-27.867-5.108-34.732c-1.867,0.688-3.236,1.871-4.086,3.576c-1.534,0-3.062,0-4.597,0
			c-3.375,5.988-6.533,12.195-10.215,17.877l-2.299-0.256l0.256,2.299c-13.009-1.633-31.553,2.266-40.353-3.574
			c1.014-4.774,0.295-11.281,0.511-16.856l0.936,0.254l0.596-0.765c-0.422-5.521,10.215-10.484,10.215-14.305c0-0.17,0-0.34,0-0.511
			l1.278-1.276l-1.79-0.254c0.274-1.434,0.752-2.656,1.022-4.086c0.956-0.748,3.384-0.022,4.086-1.021
			c1.295,0.577,1.482,2.261,1.532,4.086c8.603,2.801,17.691,5.125,29.625,4.598c-0.112-1.011,0.05-5.184,2.043-4.087
			c0-1.021,0-2.045,0-3.065c-7.514-5.252-24.927-0.611-30.646-7.663l1.617-1.106l-0.085-1.957c2.725,0.17,4.473-0.637,6.641-1.023
			l1.276,1.279l-0.254-1.787c2.692,0.033,3.748,1.699,6.639,1.533l1.222,0.541l0.823-1.051c0.478,0.375,0.771,0.932,1.021,1.535
			c5.577,0.502,14.09,1.712,16.345-2.555c-6.447-8.574-15.243-17.393-17.365-28.602l-0.328-1.354l-1.204-0.691
			c1.831-2.486,8.334-5.545,4.598-10.215l0.255-1.788l-1.787,0.253c-0.645-3.043,1.561-5.906,0-8.173l0.253-1.583l-1.278-0.971
			c3.475-3.49-0.908-6.516,0.511-10.727c-2.895-0.148-2.875,0.137-6.129-1.021L56,134.939l-2.299-0.255c0-0.171,0-0.34,0-0.511
			l2.164-0.361l-0.121-2.19c2.211,0.002,3.24,1.186,5.618,1.02c1.185-1.373,2.814-2.297,4.086-3.578
			c1.363,0.513,1.686,2.063,2.554,3.065l-1.788,1.278l1.788,1.277c-0.025,2.528-2.021,3.087-2.554,5.107
			c1.914-0.131,1.16-2.927,3.579-2.556c0.565,2.84,3.837,2.974,3.062,7.153c2.557-0.345,3.953,0.473,6.129,0.509
			c-0.162-4.591,3.143-5.715,2.043-11.238c-0.871-1.679-2.951-2.156-2.55-5.105c-1.619-1.789-4.186-2.627-6.133-4.088
			c0-1.701,0-3.405,0-5.105c1.204,0.01,1.505-0.879,3.066-0.51c0.216-1.068-0.352-1.354-0.512-2.045l0.767-0.254l-0.255-0.766
			c0.154-11.313,12.371-1.563,19.921-5.619c-9.76-1.818-21.819-4.062-30.648-5.107l-0.767-0.256l-0.763,0.256
			c-1.143-1.413-4.009-1.1-6.129-1.531l-0.767-0.256l-0.767,0.256c-0.013-0.497-0.624-0.398-1.021-0.512l0.255-1.787l-1.278,1.277
			c-2.754,0.031-4.653-0.794-7.149-1.021c-2.289-24.103-6.04-46.743-8.172-71c1.606-0.774,3.242-1.523,5.106-2.043L42.21,29.21
			l0.767,0.256c22.53-7.437,46.124-13.808,67.424-22.477l0.894-0.51L110.401,5.963z M281.005,82.072
			c0.998-1.357,5.568-4.117,4.597-4.088C284.268,79.217,280.394,80.59,281.005,82.072z M94.056,131.617
			c1.804,0.236,2.793,1.288,4.086,2.041c-0.315-1.383,0.649-4.051-0.511-4.597C97.153,130.631,94.798,130.318,94.056,131.617z
			 M80.775,143.877c0.316,1.383-0.649,4.053,0.511,4.597c2.461-1.458,4.703-3.13,7.661-4.086
			C87.274,140.535,83.213,141.355,80.775,143.877z M80.775,163.285c2.101-1.814,3.581-4.251,5.108-6.639
			C83.431,158.113,81.295,159.891,80.775,163.285z M91.502,213.345c3.252-0.835,4.874-3.3,9.706-2.554
			c-0.058,2.564,0.458,8.187,1.021,11.748c0.237-5.549,2.502-9.074,4.086-13.28C100.489,207.746,94.514,210.355,91.502,213.345z
			 M50.129,233.773c0-2.553,0-5.106,0-7.663C43.023,222.947,43.26,234.85,50.129,233.773z M37.359,232.753
			c0.688,0.162,0.975,0.728,2.043,0.511c-0.281-0.743,0.594-2.639-0.511-2.552C38.739,231.752,37.507,231.714,37.359,232.753z
			 M43.489,233.264c-0.171-1.192-0.524-2.198-1.534-2.552C41.797,232.531,40.965,233.381,43.489,233.264z"/>
		<path fill="#010101" d="M296.894,101.651l1.987-1.704c2.085,2.566,5.005,4.186,3.063,8.174c0.74-0.625,0.775-1.949,1.534-2.555
			c0.374,2.181,1.652,3.453,2.552,5.107c-1.407,1.153-2.689-1.092-3.574-2.043c0.052,2.332,2.683,2.084,3.063,4.086
			c-2.048,1.7-5.026,2.464-6.132,5.107l-1.357-1.305l-1.706,0.795c-1.654-0.633-0.393,1.653-2.043,1.02
			c-0.998-2.92-0.276-7.557-3.065-8.682c-2.295,0.43-3.041,2.406-5.107,3.062c0,4.256,0,8.514,0,12.77
			c1.773-0.961,7.576-2.295,6.641-7.662c3.601,2.066-0.677,6.326-2.045,8.172l-1.977,1.241l-0.066,2.335
			c-5.643,1.902-5.055,12.001-4.086,18.901c1.199,1.184,3.093,1.673,3.065,4.086c-0.896,0.467-2.55,0.175-3.065,1.02
			c0.754,3.813,1.089,7.812,0,12.771l-0.085,1.107l1.11-0.086c-0.133,2.424-1.484,3.624-4.086,3.576l-0.767-0.254l-0.255,0.764
			c-2.183-1.679-5.591-1.871-7.661,0l-0.682-1.191l-1.361,0.17c2.037-11.753,8.307-21.998,9.704-32.691
			c-4.756,2.055-11.016,2.607-15.833,4.598c-0.208,2.761,0.019,5.094,1.021,6.641c-5.516,9.127-10.548,18.739-15.324,28.604
			c-12.533,9.432-15.624,28.304-26.049,39.843l-1.729-0.937l-1.334,1.447c-1.474-0.908-3.849-0.918-5.106-2.041l0.894-1.727
			l-1.914-0.318c5.745-9.238,8.912-21.056,18.899-26.051c0.37-1.561-0.881-1.5-0.511-3.062
			c5.734-10.609,11.134-21.556,17.367-31.667l0.767-0.258l-0.767-0.253c2.303-3.308,8.933-3.961,10.215-8.684
			c0.927-3.405-1.019-7.911-1.532-12.26c-7.428,2.443-12.296,7.453-18.899,10.725l-1.278-1.787l-1.79-1.277
			c2.322-1.064,2.546-4.037,0.511-5.621c9.827-6.859,18.28-15.091,28.094-21.961l1.617,1.446l1.449,1.62
			c-0.765,0.935-2.13,1.273-2.552,2.553c2.843-1.061,3.706,3.143,6.129,4.086c4.912-4.623,11.73-7.337,16.345-12.26
			c-0.923-1.119-1.993-2.092-2.555-3.576c2.177-1.74,5.986-1.848,7.665-4.086L296.894,101.651z M297.347,107.1
			c-0.376-1.834-1.012-3.414-3.574-3.062C294.197,105.824,295.809,106.428,297.347,107.1z"/>
		<path fill="#010101" d="M308.074,270.553l1.534,2.043c-6.821,1.352-14.757,1.588-22.476,2.043c0-2.213,0-4.426,0-6.641
			l1.278,0.256l-0.256-1.277c7.879,0.045,15.772,0.107,22.987-0.512l-0.256,1.533l0.256,1.535c-0.098,0.412-0.514,0.508-0.512,1.02
			H308.074z"/>
		<path fill="#010101" d="M275.894,228.156h-2.552c-0.466-1.408-0.158-3.588-1.021-4.596c1.546-1.179,5.271-0.18,7.663-0.512
			c0.303,4.977,1.421,9.137,1.534,14.306c1.451-4.353-1.112-9.099-0.511-14.306c3.028-0.135,5.743,0.048,7.664,1.021
			c0.376,5.241,1.739,9.499,2.043,14.815c-1.842-0.307-3.426-0.863-5.106,0l-1.534-1.363l-1.534,1.363
			c-3.24-2.717-5.626-6.294-8.684-9.195L275.894,228.156z"/>
		<path fill="#010101" d="M250.741,223.816l-0.896,0.764c-0.669-2.734-3.249-3.56-7.149-3.062l0.255-0.768l-0.767-0.251
			c-0.222-1.759,0.204-2.866,0.512-4.089c3.937-1.34,6.869-3.689,12.258-3.576l-0.256,0.765l0.767,0.257
			c-0.996,3.601-2.224,6.97-3.577,10.214L250.741,223.816z"/>
		<path fill="#010101" d="M80.008,270.193l0.253,1.891c-3.993,0.418-5.799-1.35-7.661-3.062c-1.015,0.385,0.125,5.869-1.023,7.662
			c-2.914-0.828-0.599-6.889-2.043-9.191l2.299-0.936l1.28-2.129c3.423,0.486,6.397,1.434,10.725,1.02
			c-0.532,1.51-2.585,1.5-2.041,4.088L80.008,270.193z"/>
		<path fill="#010101" d="M43.333,137.594l-1.38,1.175c-0.657,0.702-2.218,0.505-3.575,0.511l0.255-1.277l-1.276-0.257
			c-0.312-2.581-1.301-4.489-2.043-6.639c-3.249-0.015-2.795,3.677-6.64,3.063c0.162-3.923,3.668-4.504,5.618-6.639
			c-0.412-2.145-1.793-3.313-2.043-5.621l2.299-0.51l2.299-0.512c0.8,1.414,1.588,2.842,2.043,4.598
			c1.583-0.049,2.835,0.232,3.575,1.021c-1.199,1.907-1.617,2.344-0.511,4.597l-1.021,1.788l2.043-0.256
			c0.131,1.568,1.108,2.297,1.532,3.576L43.333,137.594z"/>
		<path fill="#010101" d="M61.876,117.826c0-0.51,0-1.021,0-1.535c1.658,0.14,1.926-1.072,3.063-2.551
			c1.135,0.396,2.771,0.297,3.063,1.531c-0.521,2.395,0.842,2.906,1.532,4.088l-1.906,1.394l-1.669,1.671
			c-1.068-0.637-1.92-1.486-2.555-2.555l0.256-1.789L61.876,117.826z"/>
		<path fill="#010101" d="M344.853,31.503c-0.444-1.509-0.765,1.186-2.043,0.509c-0.014-0.497-0.625-0.396-1.021-0.509
			c0.127-0.555,1.017-0.347,1.021-1.021c0.742,0.226-0.052,0.449,0,1.021c2.33-0.65,2.085-0.883,4.087-2.043
			c-0.701,1.343-2.151,1.935-2.555,3.576C343.091,32.981,344.234,31.346,344.853,31.503z"/>
		<path fill="#010101" d="M364.264,11.583c-1.576,0.383-0.624-1.76-2.555-1.021c-0.022,0.875,0.38,1.324,1.021,1.534
			c0.156,1.596-1.476-1.298-1.534,0.511c-1.288-0.966,0.474-1.792-0.509-3.064c-0.41,0.27-0.832,0.532-1.534,0.51
			C358.723,8.656,363.819,9.497,364.264,11.583z"/>
		<g>
			<path fill="none" stroke="#010101" stroke-width="0.3243" stroke-linecap="round" d="M190.083,41.208
				c4.662,1.257,6.657,6.462,8.939,9.961"/>
			<path fill="none" stroke="#010101" stroke-width="0.3363" stroke-linecap="round" d="M154.072,55.255
				c5.581,1.405,7.324,7.657,9.193,12.261"/>
			<path fill="none" stroke="#010101" stroke-width="0.4037" stroke-linecap="round" d="M280.236,84.881
				c0.925,1.475,0.476,3.277,0.792,4.748c2.481-0.328,2.743,2.543,3.55,4.189"/>
			<path fill="none" stroke="#010101" stroke-width="0.3253" stroke-linecap="round" d="M206.685,170.183
				c16.089-12.138,33.415-23.565,49.545-35.756"/>
			<path fill="none" stroke="#010101" stroke-width="0.4411" stroke-linecap="round" d="M281.26,213.599
				c3.756-0.013,7.458,0.437,11.236,0.257"/>
			<path fill="none" stroke="#010101" stroke-width="0.8797" stroke-linecap="round" d="M240.908,236.84
				c0.711,0.127,1.484,0.074,1.979,0.17c1.393,5.371,0.32,11.388,1.085,16.943"/>
			<path fill="none" stroke="#010101" stroke-width="0.3954" stroke-linecap="round" d="M313.441,241.694
				c3.683-1.218,7.264-2.897,10.727-4.597"/>
			<path fill="none" stroke="#010101" stroke-width="0.449" stroke-linecap="round" d="M287.134,239.902
				c-0.858,1.344,0.759,3.684,2.402,2.951c0.555-0.686,0.923-1.646,0.507-2.498C289.288,239.832,288.024,239.434,287.134,239.902"/>
			<path fill="none" stroke="#010101" stroke-width="0.5588" stroke-linecap="round" d="M246.015,269.531
				c11.105-1.299,22.514-1.438,33.712-2.555"/>
			<path fill="none" stroke="#010101" stroke-width="0.5041" stroke-linecap="round" d="M129.042,45.039
				c9.139-2.369,17.961,4.158,27.055,5.834c26.485-9.886,56.271-20.349,82.585-27.408c5.005-1.344,13.48-5.698,17.908,0.246
				c3.039,0.253,6.607,1.505,5.387,5.366"/>
			<path fill="none" stroke="#010101" stroke-width="0.6189" stroke-linecap="round" d="M261.977,29.077
				c6.491-0.459,13.208-0.616,19.637,0.367c0.019,0.366-0.075,0.819-0.112,1.196c-0.098,0.164-0.227,0.295-0.355,0.423
				c-1.251,1.892-3.336,3.28-3.972,5.546"/>
			<path fill="none" stroke="#010101" stroke-width="0.4917" stroke-linecap="round" d="M277.174,36.611
				c14.707-5.829,28.632-13.14,43.16-19.409"/>
			<path fill="none" stroke="#010101" stroke-width="0.4951" stroke-linecap="round" d="M320.334,17.202
				c4.321-2.337,8.551-4.65,13.193-5.705"/>
			<path fill="none" stroke="#010101" stroke-width="0.5244" stroke-linecap="round" d="M333.528,11.497
				c11.627-2.547,24.393-4.742,36.381-3.643c-16.555,27.984-48.485,38.871-74.474,54.423"/>
			<path fill="none" stroke="#010101" stroke-width="0.4837" stroke-linecap="round" d="M295.435,62.277
				c0.983,0.859,2.564-0.142,3.473,0.742c-1.972,3.256-3.909,7.125-7.176,9.348"/>
			<path fill="none" stroke="#010101" stroke-width="1.7952" stroke-linecap="round" d="M291.497,92.188
				c1.877,3.107,4.034,6.074,5.397,9.464"/>
			<path fill="none" stroke="#010101" stroke-width="1.3638" stroke-linecap="round" d="M297.262,127.787
				c0.775-3.658-0.486-7.487,0.771-11.265"/>
			<path fill="none" stroke="#010101" stroke-width="0.2851" stroke-linecap="round" d="M269.255,208.748
				c2.299,1.275,0.742,3.289,0.765,5.107"/>
			<path fill="none" stroke="#010101" stroke-width="0.5698" stroke-linecap="round" d="M270.022,213.855
				c3.396-0.357,8.453,1.506,9.403-2.93c5.134,0.798,10.747-1.459,15.365,0.096c-0.879,1.613,0.976,2.732,1.971,3.699
				c10.588-1.284,6.967,11.182,9.65,17.087c3.56,7.837,12.777,1.64,21.409,3.598c2.266,7.399,1.611,14.749,4.13,21.938
				c0.138,0.289,0.05,0.823-0.105,1.28c-5.483,1.418-11.667-0.081-16.497,3.486"/>
			<path fill="none" stroke="#010101" stroke-width="0.5925" stroke-linecap="round" d="M315.346,262.109
				c0.543,1.453,1.807,2.299,2.7,3.387c-0.619,1.348-2.369,0.674-3.203,1.865"/>
			<path fill="none" stroke="#010101" stroke-width="0.6933" stroke-linecap="round" d="M314.843,267.361
				c0.133,1.098,0.289,2.301-0.029,3.369c-2.111,1.117-4.799,1.52-6.74-0.178"/>
			<path fill="none" stroke="#010101" stroke-width="0.5478" stroke-linecap="round" d="M242.44,272.082
				c14.742-0.578,30.873-0.533,44.363-5.105c0.572,0.301,0.902,0.645,1.609,1.277"/>
			<path fill="none" stroke="#010101" stroke-width="2.1677" stroke-linecap="round" d="M315.346,262.109
				c-4.211,0.031-8.424,0.008-12.635,0.016"/>
			<path fill="none" stroke="#010101" stroke-width="0.3842" stroke-linecap="round" d="M265.679,224.58
				c4.332-0.27,6.189,4.773,10.215,3.576"/>
			<path fill="none" stroke="#010101" stroke-width="0.2945" stroke-linecap="round" d="M220.729,221.004
				c-7.31,0.592-14.83,0.088-22.216,0.256"/>
			<path fill="none" stroke="#010101" stroke-width="0.3624" stroke-linecap="round" d="M220.729,221.004
				c-1.056-1.855,1.507-2.812,1.846-4.512"/>
			<path fill="none" stroke="#010101" stroke-width="0.326" stroke-linecap="round" d="M197.147,208.832
				c-0.062-0.018-0.127-0.039-0.191-0.058c-5.774,3.874-11.836,7.777-16.835,12.487"/>
			<path fill="none" stroke="#010101" stroke-width="1.6819" stroke-linecap="round" d="M286.876,282.045
				c-14.285,5.092-29.551,4.355-44.438,5.619"/>
			<path fill="none" stroke="#010101" stroke-width="1.0958" stroke-linecap="round" d="M91.246,270.809
				c-3.762-0.191-7.648,1.025-11.236-0.615"/>
			<path fill="none" stroke="#010101" stroke-width="0.8437" stroke-linecap="round" d="M68.652,255.838
				c-1.289-1.611-3.945-0.75-4.99-2.908"/>
			<path fill="none" stroke="#010101" stroke-width="0.6341" stroke-linecap="round" d="M25.012,235.052
				c0.05-5.173,0.131-10.442,0.557-15.608c3.365-2.137,8.008,0.707,11.533-1.248"/>
			<path fill="none" stroke="#010101" stroke-width="0.4755" stroke-linecap="round" d="M44.594,205.597
				c-20.148-8.159-3.469-30.266,8.513-37.459"/>
			<path fill="none" stroke="#010101" stroke-width="1.088" stroke-linecap="round" d="M53.107,168.14
				c-2.685-10.485-6.747-20.43-9.772-30.546"/>
			<path fill="none" stroke="#010101" stroke-width="0.4574" stroke-linecap="round" d="M31.548,114.888
				c4.464-7.688,17.148-6.689,22.411-13.661"/>
			<path fill="none" stroke="#010101" stroke-width="0.3372" stroke-linecap="round" d="M269.255,207.725
				c2.116-8.708,7.208-17.246,6.967-26.16"/>
			<path fill="none" stroke="#010101" stroke-width="0.4406" stroke-linecap="round" d="M276.225,181.564
				c-8.054,3.984-6.262,15.693-11.053,22.584"/>
			<path fill="none" stroke="#010101" stroke-width="0.5556" stroke-linecap="round" d="M276.225,181.564
				c1.675-2.01,4.327-2.758,5.946-4.861c0.087-0.445-0.029-0.811-0.144-1.156"/>
			<path fill="none" stroke="#010101" stroke-width="0.48" stroke-linecap="round" d="M282.025,175.547
				c-0.534-0.463-1.137-0.44-1.79-0.512"/>
			<path fill="none" stroke="#010101" stroke-width="0.376" stroke-linecap="round" d="M280.236,175.035
				c-2.006,4.793-9.876,4.332-11.529,10.688"/>
			<path fill="none" stroke="#010101" stroke-width="0.3351" stroke-linecap="round" d="M268.707,185.723
				c1.442,5.377-3.039,10.706-3.793,16.127"/>
			<path fill="none" stroke="#010101" stroke-width="1.45" stroke-linecap="round" d="M267.722,185.76
				c0.349,0.005,0.694-0.016,0.985-0.037"/>
			<path fill="none" stroke="#010101" stroke-width="0.5185" stroke-linecap="round" d="M281.09,171.883
				c-0.043-0.272-0.183-0.759-0.341-1.191"/>
			<path fill="none" stroke="#010101" stroke-width="0.3521" stroke-linecap="round" d="M222.577,216.492
				c0.218,0.357,0.833,1.053,1.476,1.55c2.031-0.663,4.716-1.03,5.874,1.433"/>
			<path fill="none" stroke="#010101" stroke-width="0.3401" stroke-linecap="round" d="M229.926,219.475
				c3.893,1.577,8.9,2.082,13.025,1.275"/>
			<path fill="none" stroke="#010101" stroke-width="0.3417" stroke-linecap="round" d="M260.063,204.15
				c2.716-6.038,2.997-13.627,7.661-18.391"/>
			<path fill="none" stroke="#010101" stroke-width="0.4578" stroke-linecap="round" d="M267.722,185.76
				c-0.705-0.594-1.262-1.513-1.393-2.02c3.139-3.808,3.164-9.216,5.82-13.473"/>
			<path fill="none" stroke="#010101" stroke-width="0.2975" stroke-linecap="round" d="M220.729,221.004
				c3.161,0.658,6.537,0.477,9.195-1.531"/>
			<path fill="none" stroke="#010101" stroke-width="0.464" stroke-linecap="round" d="M111.292,6.475
				C87.594,11.904,64.75,20.541,42.208,29.207"/>
			<path fill="none" stroke="#010101" stroke-width="0.5091" stroke-linecap="round" d="M333.528,11.497
				c0.21,0.419,0.294,0.969,0.489,1.416c3.895,0.542,7.636,2.486,9.729,5.906"/>
			<path fill="none" stroke="#010101" stroke-width="0.5188" stroke-linecap="round" d="M320.334,17.202
				c0.162,0.37,0.343,0.719,0.573,0.965c3.75-1.517,8.304-3.922,11.814-0.456"/>
			<path fill="none" stroke="#010101" stroke-width="0.4729" stroke-linecap="round" d="M332.72,17.711
				c1.802,0.288,3.161,1.907,4.385,3.15"/>
			<path fill="none" stroke="#010101" stroke-width="0.6451" stroke-linecap="round" d="M332.72,17.711
				c-6.138,4.478-13.369,8.331-20.176,12.26"/>
			<path fill="none" stroke="#010101" stroke-width="0.3881" stroke-linecap="round" d="M312.544,29.971
				c-7.936,7.169-18.397,11.75-27.198,18.135"/>
			<path fill="none" stroke="#010101" stroke-width="0.4893" stroke-linecap="round" d="M277.174,36.611
				c-3.73,3.842-8.102,7.964-10.471,12.131"/>
			<path fill="none" stroke="#010101" stroke-width="0.383" stroke-linecap="round" d="M153.561,52.19
				c-6.293,2.896-13.117,4.921-19.408,7.662"/>
			<path fill="none" stroke="#010101" stroke-width="0.3172" stroke-linecap="round" d="M146.154,81.051
				c-0.595-7.38-4.847-14.082-10.727-18.389"/>
			<path fill="none" stroke="#010101" stroke-width="1.5516" stroke-linecap="round" d="M180.376,94.074
				c12.356-6.133,24.825-11.941,37.291-17.875"/>
			<path fill="none" stroke="#010101" stroke-width="0.3361" stroke-linecap="round" d="M261.977,29.077
				c-40.793,19.018-81.559,37.458-120.674,57.335"/>
			<path fill="none" stroke="#010101" stroke-width="0.5105" stroke-linecap="round" d="M312.544,29.971
				c-13.632,5.051-25.115,16.253-39.456,19.376"/>
			<path fill="none" stroke="#010101" stroke-width="0.6472" stroke-linecap="round" d="M295.435,62.277
				c-1.083,0.758-2.307-0.068-3.448,0.299"/>
			<path fill="none" stroke="#010101" stroke-width="0.6237" stroke-linecap="round" d="M208.728,122.168
				c18.664-9.5,37.399-19.741,54.143-31.158"/>
			<path fill="none" stroke="#010101" stroke-width="2.0185" stroke-linecap="round" d="M201.41,166.414
				c12.475-8.896,25.515-16.939,37.964-25.857"/>
			<path fill="none" stroke="#010101" stroke-width="0.9475" stroke-linecap="round" d="M267.807,113.145
				c8.197-7.025,15.962-13.65,23.689-20.957"/>
			<path fill="none" stroke="#010101" stroke-width="1.5814" stroke-linecap="round" d="M291.497,92.188
				c-0.923-1.716-2.062-3.357-2.312-5.354"/>
			<path fill="none" stroke="#010101" stroke-width="1.1081" stroke-linecap="round" d="M40.932,132.895
				c2.513-2.228,5.896-2.447,8.887-3.627"/>
			<path fill="none" stroke="#010101" stroke-width="1.5367" stroke-linecap="round" d="M49.821,129.268
				c0.052-0.293,0.044-1.236,0.052-2.504"/>
			<path fill="none" stroke="#010101" stroke-width="0.5638" stroke-linecap="round" d="M49.874,126.764
				c-0.426-0.689-0.474-1.379-0.352-1.959c1.8-1.251,3.953-1.26,5.969-2.129"/>
			<path fill="none" stroke="#010101" stroke-width="0.6008" stroke-linecap="round" d="M55.491,122.676
				c-0.27-0.814-0.887-1.176-1.153-1.379c-0.168-6.005,1.022-12.002,1.153-18.027"/>
			<path fill="none" stroke="#010101" stroke-width="2.1898" stroke-linecap="round" d="M31.548,114.888
				c0.887,2.224,1.896,4.389,3.001,6.515"/>
			<path fill="none" stroke="#010101" stroke-width="0.5962" stroke-linecap="round" d="M68.517,122.998
				c3.24,2.341,0.886,6.938,0.511,10.045c-0.925,0.203-1.864,0.34-2.81,0.364"/>
			<path fill="none" stroke="#010101" stroke-width="0.6126" stroke-linecap="round" d="M74.902,116.549
				c-3.779-1.639-6.487-6.354-11.139-4.371c-1.271-2.103-0.308-4.967-0.611-7.379"/>
			<path fill="none" stroke="#010101" stroke-width="1.6734" stroke-linecap="round" d="M49.821,129.268
				c1.881,1.746,3.675,3.496,6.046,4.543"/>
			<path fill="none" stroke="#010101" stroke-width="0.4797" stroke-linecap="round" d="M31.548,114.888
				c-8.368-0.745-16.636,5.782-24.301,8.817c5.799,6.053,12.163,11.773,18.593,17.064c4.221-1.011,8.848-0.873,12.792-2.765"/>
			<path fill="none" stroke="#010101" stroke-width="0.6843" stroke-linecap="round" d="M63.664,118.08
				c-2.084,2.83-1.725,7.643-1.299,10.848c3.573,0.076,5.252-2.898,6.154-5.93"/>
			<path fill="none" stroke="#010101" stroke-width="2.0785" stroke-linecap="round" d="M68.517,122.998
				c0-0.834-0.193-1.711-0.885-2.245"/>
			<path fill="none" stroke="#010101" stroke-width="0.4513" stroke-linecap="round" d="M49.874,126.764
				c1.608-1.754,4.358-1.627,6.214-2.826c-0.035-0.319-0.299-0.812-0.597-1.262"/>
			<path fill="none" stroke="#010101" stroke-width="0.3538" stroke-linecap="round" d="M118.827,176.311
				c3.54-4.584,5.379-10.387,8.451-15.482c4.388,1.279,8.887,1.65,12.379-2.002c-3.228-7.545,7.621-7.379,11.861-10.607"/>
			<path fill="none" stroke="#010101" stroke-width="0.5966" stroke-linecap="round" d="M284.492,167.458
				c4.236-11.465,10.924-24.317,8.366-36.979c-0.759-1.817-2.286-2.776-4.126-3.238"/>
			<path fill="none" stroke="#010101" stroke-width="1.2411" stroke-linecap="round" d="M43.333,137.594
				c4.221-0.996,8.796-0.608,12.668-2.656"/>
			<path fill="none" stroke="#010101" stroke-width="0.426" stroke-linecap="round" d="M197.147,208.832
				c0.021,0.064,0.04,0.131,0.054,0.2c6.26,1.636,13.138,6.556,19.824,5.142"/>
			<path fill="none" stroke="#010101" stroke-width="0.2759" stroke-linecap="round" d="M214.857,179.375
				c12.408-8.508,24.043-19.11,36.777-26.56"/>
			<path fill="none" stroke="#010101" stroke-width="0.6835" stroke-linecap="round" d="M53.107,168.14
				c1.058-0.032,1.773-0.905,2.193-1.788"/>
			<path fill="none" stroke="#010101" stroke-width="1.0491" stroke-linecap="round" d="M55.298,166.352
				c-1.611-6.449,3.6-11.84,7.343-16.396"/>
			<path fill="none" stroke="#010101" stroke-width="0.3307" stroke-linecap="round" d="M197.147,208.832
				c7.68-6.652,16.44-12.348,24.718-18.366c0.131-0.229,0.195-0.42,0.258-0.608c-5.745-8.557-17.7-13.552-20.713-23.443"/>
			<path fill="none" stroke="#010101" stroke-width="0.791" stroke-linecap="round" d="M201.41,166.414
				c-8.1-1.922-12.88-10.961-17.585-17.557"/>
			<path fill="none" stroke="#010101" stroke-width="0.4207" stroke-linecap="round" d="M55.298,166.352
				c3.695-0.781,6.838-3.771,8.875-6.894"/>
			<path fill="none" stroke="#010101" stroke-width="0.425" stroke-linecap="round" d="M52.424,203.893
				c-9.802-7.582-6.766-22.285,3.882-27.327"/>
			<path fill="none" stroke="#010101" stroke-width="1.0715" stroke-linecap="round" d="M56.306,176.567
				c0.532-2.163,2.8-2.953,4.217-4.415"/>
			<path fill="none" stroke="#010101" stroke-width="0.4187" stroke-linecap="round" d="M282.025,175.547
				c0.112-0.061,0.222-0.121,0.333-0.179c0.607-0.624,0.865-1.505,1.149-2.354c-0.031-1.287-1.586-0.912-2.419-1.129"/>
			<path fill="none" stroke="#010101" stroke-width="0.5025" stroke-linecap="round" d="M281.09,171.883
				c-0.509,0.41-0.723,0.492-0.979,0.696c-0.11,0.765-0.372,1.79,0.127,2.452"/>
			<path fill="none" stroke="#010101" stroke-width="0.9757" stroke-linecap="round" d="M56.306,176.567
				c1.879,9.126,0.272,18.845,3.725,27.612"/>
			<path fill="none" stroke="#010101" stroke-width="1.2254" stroke-linecap="round" d="M68.652,255.838
				c3.332-0.86,6.867-0.061,10.226-0.197c3.164-4.132,1.559-9.964,2.75-14.883"/>
			<path fill="none" stroke="#010101" stroke-width="1.5452" stroke-linecap="round" d="M68.652,255.838
				c-0.395,4.165-2.041,9.09,3.182,10.715"/>
			<path fill="none" stroke="#010101" stroke-width="0.3271" stroke-linecap="round" d="M263.893,224.327
				c0.722-0.044,1.318,0.044,1.788,0.253"/>
			<path fill="none" stroke="#010101" stroke-width="0.3223" stroke-linecap="round" d="M265.679,224.58
				c1.896-3.305,2.187-7.546,4.342-10.725"/>
			<path fill="none" stroke="#010101" stroke-width="0.2629" stroke-linecap="round" d="M255.465,230.201
				c1.222,1.592,3.538,2.273,5.364,2.81"/>
			<path fill="none" stroke="#010101" stroke-width="0.64" stroke-linecap="round" d="M250.741,223.816
				c0.239,1.508-1.137,2.857-0.322,4.314c0.435,0.258,0.852,0.437,1.209,0.514c0.087,0.008,0.175,0.014,0.26,0.022"/>
			<path fill="none" stroke="#010101" stroke-width="0.3126" stroke-linecap="round" d="M251.888,228.667
				c1.322-1.87,3.725-2.54,5.876-3.063"/>
			<path fill="none" stroke="#010101" stroke-width="0.2962" stroke-linecap="round" d="M257.764,225.604
				c1.843-6.348,4.207-12.504,6.641-18.644"/>
			<path fill="none" stroke="#010101" stroke-width="0.3043" stroke-linecap="round" d="M257.764,225.604
				c2.143-0.268,3.864-1.588,6.129-1.276"/>
			<path fill="none" stroke="#010101" stroke-width="0.3016" stroke-linecap="round" d="M263.893,224.327
				c1.416-5.276,3.315-10.538,5.365-15.579"/>
			<path fill="none" stroke="#010101" stroke-width="0.5034" stroke-linecap="round" d="M269.255,208.748c0-0.348,0-0.709,0-1.02"/>
			<path fill="none" stroke="#010101" stroke-width="0.2555" stroke-linecap="round" d="M269.255,207.725
				c-1.588-0.92-2.508-2.666-4.086-3.576"/>
			<path fill="none" stroke="#010101" stroke-width="0.426" stroke-linecap="round" d="M265.169,204.15
				c-1.723-0.333-3.475,0.702-5.106,0"/>
			<path fill="none" stroke="#010101" stroke-width="0.3043" stroke-linecap="round" d="M260.063,204.15
				c-3.681,1.5-2.027,7.229-5.367,9.448"/>
			<path fill="none" stroke="#010101" stroke-width="0.2939" stroke-linecap="round" d="M262.361,227.902
				c-0.318,1.758-1.22,3.334-1.534,5.108"/>
			<path fill="none" stroke="#010101" stroke-width="0.3112" stroke-linecap="round" d="M260.828,233.011
				c0.052,0.116,0.108,0.231,0.158,0.349c3.714,1.473,7.399,4.354,11.333,4.5"/>
			<path fill="none" stroke="#010101" stroke-width="0.4157" stroke-linecap="round" d="M251.888,228.667
				c0.971,0.851,2.232,1.604,3.577,1.534"/>
			<path fill="none" stroke="#010101" stroke-width="0.303" stroke-linecap="round" d="M255.465,230.201
				c1.671-1.696,4.466-2.137,6.896-2.299"/>
			<path fill="none" stroke="#010101" stroke-width="0.4241" stroke-linecap="round" d="M262.361,227.902
				c4.573-0.861,8.443,2.846,9.875,6.809"/>
			<path fill="none" stroke="#010101" stroke-width="0.7178" stroke-linecap="round" d="M272.236,234.711
				c0.611-0.149,1.243-0.092,1.677-0.012c1.195,1.076,1.22,2.73,1.9,4.098"/>
			<path fill="none" stroke="#010101" stroke-width="0.664" stroke-linecap="round" d="M275.811,238.797
				c3.269,2.041,6.327,5.379,10.105,5.793c-0.329-2.324-1.279-4.688-1.848-7.064"/>
			<path fill="none" stroke="#010101" stroke-width="0.4093" stroke-linecap="round" d="M272.321,237.859
				c0.345,0.695,0.786,1.208,1.388,1.686c0.557,0.133,1.291-0.354,2.102-0.748"/>
			<path fill="none" stroke="#010101" stroke-width="0.9749" stroke-linecap="round" d="M272.236,234.711
				c0.154,1.043,0.056,2.104,0.085,3.148"/>
			<path fill="none" stroke="#010101" stroke-width="0.992" stroke-linecap="round" d="M314.843,267.361
				c-1.353-0.35-2.684,0.275-3.957,0.637"/>
			<path fill="none" stroke="#010101" stroke-width="0.4784" stroke-linecap="round" d="M300.16,50.402
				c13.092-6.574,25.992-13.079,38.82-19.921"/>
			<path fill="none" stroke="#010101" stroke-width="0.2782" stroke-linecap="round" d="M235.288,115.527
				c-1,1.564,1.76,3.687,2.187,5.473c0.869,0.311,1.939-0.176,2.44-0.842c-0.349-2.143-1.457-4.807-3.134-6.119
				C236.176,114.336,235.475,114.857,235.288,115.527"/>
			<path fill="none" stroke="#010101" stroke-width="0.2811" stroke-linecap="round" d="M235.288,134.938
				c-12.607,8.317-25.483,16.972-37.8,26.049"/>
			<path fill="none" stroke="#010101" stroke-width="0.264" stroke-linecap="round" d="M189.318,147.707
				c1.095,0.779,1.312,2.588,2.602,3.021c2.085-0.615,4.265-2.085,5.924-3.542c-0.699-1.691-1.582-3.906-2.95-5.053
				c-2.205,0.427-4.106,2.311-5.938,3.57C188.832,146.346,189.212,147.033,189.318,147.707"/>
			<path fill="none" stroke="#010101" stroke-width="0.975" stroke-linecap="round" d="M247.692,249.426
				c0.372-5.812-2.511-9.889-2.7-15.908"/>
		</g>
	</g>
</g>
</svg>
