<?xml version="1.0" encoding="utf-8"?>
<!-- Generator: Adobe Illustrator 14.0.0, SVG Export Plug-In . SVG Version: 6.00 Build 43363)  -->
<!DOCTYPE svg PUBLIC "-//W3C//DTD SVG 1.1//EN" "http://www.w3.org/Graphics/SVG/1.1/DTD/svg11.dtd">
<svg version="1.1" id="Layer_1" xmlns="http://www.w3.org/2000/svg" xmlns:xlink="http://www.w3.org/1999/xlink" x="0px" y="0px"
	 width="435.333px" height="59.998px" viewBox="0 0 435.333 59.998" enable-background="new 0 0 435.333 59.998"
	 xml:space="preserve">
<g>
	<path d="M7.08,50.196v-43.2h29.64v8.52h-19.44v9.06h17.52v7.98h-17.52v9.12h19.98v8.52H7.08z"/>
	<path d="M60.74,50.196v-28.74c0-0.84-0.051-1.699-0.15-2.58c-0.1-0.879-0.31-1.68-0.63-2.4c-0.32-0.72-0.79-1.32-1.41-1.8
		c-0.621-0.48-1.431-0.72-2.43-0.72c-1.041,0-1.86,0.24-2.46,0.72s-1.061,1.08-1.38,1.8c-0.321,0.72-0.531,1.521-0.63,2.4
		c-0.1,0.88-0.15,1.74-0.15,2.58v28.74H41.3v-29.76c0-4.84,1.26-8.46,3.78-10.86s6.2-3.6,11.04-3.6c4.959,0,8.67,1.221,11.13,3.66
		c2.46,2.44,3.69,6.041,3.69,10.8v29.76H60.74z"/>
	<path d="M109.919,28.536c0,3.441-0.471,6.501-1.41,9.18c-0.94,2.68-2.32,4.94-4.14,6.78c-1.821,1.84-4.071,3.25-6.75,4.23
		c-2.68,0.981-5.74,1.47-9.18,1.47h-13.02v-43.2h15.42c3.279,0,6.12,0.55,8.52,1.65c2.4,1.101,4.38,2.62,5.94,4.56
		c1.56,1.941,2.72,4.221,3.48,6.84C109.538,22.666,109.919,25.497,109.919,28.536z M99.719,28.416c0-1.92-0.25-3.68-0.75-5.28
		c-0.5-1.599-1.26-2.959-2.28-4.08c-1.02-1.119-2.29-1.989-3.81-2.61c-1.521-0.62-3.28-0.93-5.28-0.93h-1.98v26.16h2.34
		c2.04,0,3.8-0.339,5.28-1.02c1.479-0.68,2.7-1.61,3.66-2.79c0.96-1.179,1.669-2.58,2.13-4.2
		C99.488,32.046,99.719,30.296,99.719,28.416z"/>
	<path d="M113.378,50.196v-43.2h29.64v8.52h-19.44v9.06h17.52v7.98h-17.52v9.12h19.98v8.52H113.378z"/>
	<path d="M178.798,18.996c0,2.4-0.61,4.601-1.83,6.6c-1.221,2-2.991,3.381-5.31,4.14c1.279,0.36,2.349,0.92,3.21,1.68
		c0.859,0.76,1.56,1.63,2.1,2.61c0.54,0.98,0.93,2.061,1.17,3.24c0.24,1.181,0.36,2.391,0.36,3.63v9.3h-9.9v-7.5
		c0-1.32-0.101-2.54-0.3-3.66c-0.201-1.119-0.57-2.079-1.11-2.88c-0.54-0.8-1.29-1.43-2.25-1.89c-0.96-0.459-2.181-0.69-3.66-0.69
		h-3.24v16.62h-10.2v-43.2h17.16c1.92,0,3.709,0.24,5.37,0.72c1.659,0.48,3.12,1.221,4.38,2.22c1.26,1,2.25,2.25,2.97,3.75
		C178.438,15.186,178.798,16.956,178.798,18.996z M168.598,20.587c0-1.791-0.57-3.174-1.71-4.148
		c-1.14-0.975-3.171-1.463-6.09-1.463h-2.76v11.46h3.12c0.84,0,1.7-0.079,2.58-0.238c0.879-0.16,1.68-0.458,2.4-0.896
		c0.72-0.438,1.31-1.035,1.77-1.791C168.367,22.756,168.598,21.781,168.598,20.587z"/>
	<path d="M187.258,27.576l-6.24-3.6l10.2-17.7l6.24,3.6L187.258,27.576z"/>
	<path d="M235.077,37.138c0,2.596-0.54,4.792-1.62,6.59s-2.49,3.245-4.23,4.343c-1.74,1.099-3.7,1.897-5.88,2.396
		c-2.181,0.498-4.391,0.748-6.63,0.748c-1,0-2.16-0.081-3.48-0.242c-1.32-0.162-2.67-0.464-4.05-0.908s-2.73-1.028-4.05-1.754
		c-1.32-0.726-2.5-1.673-3.54-2.843c-1.041-1.169-1.881-2.554-2.52-4.154c-0.641-1.6-0.96-3.48-0.96-5.64h10.2
		c0,2.92,0.85,5,2.55,6.24c1.7,1.24,3.93,1.86,6.69,1.86c0.84,0,1.689-0.1,2.55-0.299c0.86-0.2,1.64-0.519,2.34-0.959
		c0.699-0.438,1.279-1.028,1.74-1.767c0.459-0.739,0.69-1.626,0.69-2.666c0-0.958-0.22-1.737-0.66-2.336
		c-0.44-0.599-1.11-1.129-2.01-1.588c-0.9-0.459-2.01-0.878-3.33-1.258c-1.32-0.379-2.88-0.808-4.68-1.287
		c-1.721-0.479-3.441-0.979-5.16-1.499c-1.72-0.519-3.27-1.208-4.65-2.066c-1.38-0.859-2.511-1.967-3.39-3.325
		c-0.88-1.357-1.32-3.115-1.32-5.272c0-2.396,0.469-4.443,1.41-6.14c0.939-1.697,2.19-3.095,3.75-4.193s3.339-1.897,5.34-2.396
		c2-0.499,4.04-0.75,6.12-0.75c2.28,0,4.43,0.242,6.45,0.726c2.02,0.483,3.81,1.28,5.37,2.39c1.56,1.109,2.82,2.547,3.78,4.314
		c0.96,1.768,1.5,3.931,1.62,6.491h-9.72c0.08-1.16-0.09-2.15-0.51-2.97c-0.42-0.819-0.99-1.49-1.71-2.01
		c-0.72-0.52-1.551-0.9-2.49-1.14c-0.94-0.24-1.89-0.36-2.85-0.36c-0.72,0-1.49,0.07-2.31,0.21c-0.82,0.14-1.57,0.389-2.25,0.748
		c-0.681,0.36-1.241,0.849-1.68,1.468c-0.44,0.619-0.66,1.387-0.66,2.306c0.04,1.078,0.44,1.947,1.2,2.606
		c0.759,0.659,1.75,1.218,2.97,1.677c1.22,0.459,2.6,0.869,4.14,1.228c1.54,0.36,3.11,0.739,4.71,1.138
		c1.64,0.44,3.219,0.949,4.74,1.528c1.52,0.579,2.87,1.328,4.05,2.246c1.179,0.919,2.13,2.066,2.85,3.444
		C234.717,33.395,235.077,35.102,235.077,37.138z"/>
	<path d="M293.336,49.296c-1.08-0.68-2.021-1.779-2.82-3.3c-1.48,1.641-3.25,2.92-5.311,3.84c-2.061,0.919-4.37,1.38-6.93,1.38
		c-3.32,0-6.28-0.581-8.88-1.74c-2.601-1.16-4.811-2.739-6.63-4.74c-1.821-2-3.21-4.37-4.17-7.11c-0.96-2.74-1.44-5.709-1.44-8.91
		c0-3.24,0.48-6.25,1.44-9.03c0.96-2.78,2.359-5.18,4.2-7.2c1.839-2.02,4.069-3.609,6.689-4.77c2.619-1.16,5.61-1.74,8.97-1.74
		c2.56,0,4.95,0.351,7.171,1.05c2.22,0.7,4.17,1.73,5.85,3.09c1.68,1.36,3.039,3.051,4.08,5.07c1.04,2.02,1.68,4.35,1.92,6.99h-9.96
		c-0.16-1.2-0.51-2.28-1.05-3.24c-0.54-0.96-1.23-1.79-2.07-2.49c-0.84-0.699-1.791-1.239-2.85-1.62
		c-1.061-0.379-2.171-0.57-3.33-0.57c-2.001,0-3.681,0.44-5.04,1.32c-1.36,0.88-2.48,2.01-3.36,3.39s-1.51,2.92-1.89,4.62
		c-0.381,1.701-0.57,3.39-0.57,5.07s0.189,3.36,0.57,5.04c0.38,1.68,0.99,3.21,1.83,4.59c0.84,1.38,1.939,2.5,3.3,3.36
		c1.359,0.86,3.02,1.29,4.979,1.29c2.4,0,4.311-0.64,5.73-1.92c1.419-1.279,2.409-2.94,2.97-4.98h-8.52v-7.98h19.26v10.74"/>
	<path d="M323.395,50.196v-17.64h-9.239v17.64h-10.2v-29.7c0-4.879,1.26-8.52,3.779-10.92c2.521-2.4,6.2-3.6,11.04-3.6
		c4.96,0,8.671,1.221,11.131,3.66c2.46,2.44,3.689,6.041,3.689,10.8v29.76H323.395z M323.395,21.414
		c0-0.834-0.051-1.689-0.149-2.565c-0.101-0.875-0.311-1.67-0.63-2.387c-0.321-0.716-0.791-1.312-1.41-1.79
		c-0.621-0.477-1.431-0.716-2.431-0.716c-1.04,0-1.859,0.239-2.46,0.716c-0.6,0.478-1.06,1.074-1.38,1.79s-0.53,1.511-0.63,2.387
		c-0.101,0.875-0.149,1.73-0.149,2.565v3.162h9.239V21.414z"/>
	<path d="M378.954,50.196v-28.74c0-0.84-0.051-1.71-0.15-2.61s-0.31-1.71-0.63-2.43c-0.32-0.72-0.79-1.31-1.41-1.77
		c-0.62-0.459-1.431-0.69-2.43-0.69c-1.041,0-1.86,0.231-2.46,0.69c-0.6,0.46-1.061,1.05-1.38,1.77c-0.32,0.72-0.531,1.53-0.63,2.43
		c-0.101,0.9-0.15,1.77-0.15,2.61v28.74h-10.2v-28.74c0-0.84-0.051-1.71-0.149-2.61c-0.101-0.9-0.311-1.71-0.63-2.43
		c-0.321-0.72-0.791-1.31-1.41-1.77c-0.621-0.459-1.431-0.69-2.431-0.69c-1.04,0-1.859,0.231-2.46,0.69
		c-0.6,0.46-1.06,1.05-1.38,1.77c-0.32,0.72-0.53,1.53-0.63,2.43c-0.101,0.9-0.149,1.77-0.149,2.61v28.74h-10.2v-29.76
		c0-4.84,1.26-8.46,3.779-10.86c2.521-2.4,6.2-3.6,11.04-3.6c1.921,0,3.71,0.261,5.37,0.78c1.66,0.52,3.11,1.36,4.351,2.52
		c1.239-1.16,2.689-2,4.35-2.52c1.659-0.52,3.45-0.78,5.37-0.78c4.84,0,8.52,1.2,11.04,3.6c2.52,2.4,3.78,6.021,3.78,10.86v29.76
		H378.954z"/>
	<path d="M395.634,50.196v-43.2h29.64v8.52h-19.439v9.06h17.52v7.98h-17.52v9.12h19.979v8.52H395.634z"/>
</g>
<rect x="289.53" y="37.932" width="7.945" height="12.284"/>
</svg>
